<svg width="60" height="59" viewBox="0 0 60 59" fill="none" xmlns="http://www.w3.org/2000/svg">
<g filter="url(#filter0_d_387_3)">
<path d="M7.62456 0.0635757C6.30082 0.258907 5.21775 0.85339 4.30661 1.88949C3.5115 2.78547 2.85393 4.0169 2.33389 5.5753L2.12329 6.208L2.13618 27.4651L2.14478 48.7264L2.24363 49.1383C2.5101 50.2891 2.96997 51.0832 3.81665 51.8772C4.04014 52.0853 4.40116 52.374 4.62465 52.5227C5.51431 53.1171 6.89822 53.6777 8.28213 54.0089L8.82796 54.1405L30.2442 54.1278L51.6562 54.1193L52.086 54.0216C54.6432 53.4399 56.2592 51.3422 57.0457 47.5842L57.136 47.1638V26.8834V6.60291L57.0285 6.15705C56.2076 2.81095 54.6776 0.827911 52.4384 0.212196C51.6261 -0.0128593 52.8682 -0.000118256 29.5737 0.0041275C12.3909 0.00837326 7.91681 0.0211105 7.62456 0.0635757ZM45.6821 5.90652C45.8498 5.99994 45.94 6.10184 46.0002 6.28019C46.0346 6.3821 46.0475 7.17617 46.0475 8.97236C46.0475 11.4607 46.0432 11.5286 45.9572 11.7027C45.8927 11.8344 45.8197 11.9066 45.6864 11.9703C45.5102 12.0552 45.4372 12.0594 43.602 12.0594H41.698L41.4359 12.1953C41.0319 12.4076 40.6794 12.7771 40.4688 13.2059C40.1766 13.7962 40.1422 14.0679 40.1379 15.6476C40.1379 16.9682 40.1422 17.0107 40.2325 17.1805C40.2926 17.2909 40.3872 17.3843 40.4903 17.4353C40.645 17.5117 40.8084 17.516 43.3527 17.5287L46.0475 17.5414V20.0638V22.5903H43.3914H40.7353L40.5462 22.6837C40.4001 22.7602 40.327 22.8324 40.2453 22.9937L40.1379 23.2018L40.125 35.5501L40.1164 47.8984H36.0635C32.2083 47.8984 32.0063 47.8942 31.8387 47.8177C31.7313 47.7668 31.6238 47.6776 31.5594 47.5757L31.4562 47.4101L31.4433 34.9981L31.4347 22.5903H28.856H26.2773V20.3652C26.2773 18.8918 26.2945 18.0977 26.3246 18.017C26.3804 17.8684 26.518 17.7198 26.6856 17.6306C26.7973 17.5669 27.0638 17.5542 28.856 17.5372C30.4763 17.5202 30.919 17.5032 31.0049 17.4565C31.164 17.3716 31.3101 17.2315 31.3617 17.1126C31.3917 17.0446 31.4175 16.3907 31.439 15.3503C31.4562 14.1784 31.4863 13.5457 31.5379 13.1847C31.7743 11.4904 32.2384 10.1571 32.9691 9.06578C33.3645 8.47554 34.1854 7.66874 34.7871 7.27808C36.042 6.45429 37.5592 5.99569 39.4717 5.86405C39.7425 5.84282 41.2253 5.83008 42.7596 5.83433C45.2653 5.83857 45.5661 5.84707 45.6821 5.90652Z" fill="white"/>
</g>
<defs>
<filter id="filter0_d_387_3" x="0.123291" y="0.00244141" width="59.0127" height="58.1381" filterUnits="userSpaceOnUse" color-interpolation-filters="sRGB">
<feFlood flood-opacity="0" result="BackgroundImageFix"/>
<feColorMatrix in="SourceAlpha" type="matrix" values="0 0 0 0 0 0 0 0 0 0 0 0 0 0 0 0 0 0 127 0" result="hardAlpha"/>
<feOffset dy="2"/>
<feGaussianBlur stdDeviation="1"/>
<feComposite in2="hardAlpha" operator="out"/>
<feColorMatrix type="matrix" values="0 0 0 0 0 0 0 0 0 0 0 0 0 0 0 0 0 0 0.25 0"/>
<feBlend mode="normal" in2="BackgroundImageFix" result="effect1_dropShadow_387_3"/>
<feBlend mode="normal" in="SourceGraphic" in2="effect1_dropShadow_387_3" result="shape"/>
</filter>
</defs>
</svg>
