<svg width="60" height="59" viewBox="0 0 60 59" fill="none" xmlns="http://www.w3.org/2000/svg">
<g filter="url(#filter0_d_387_5)">
<path d="M45.7749 0H15.2123C8.46106 0 2.9873 5.4725 2.9873 12.2222V42.7778C2.9873 49.5275 8.46106 55 15.2123 55H45.7749C52.5262 55 58 49.5275 58 42.7778V12.2222C58 5.4725 52.5262 0 45.7749 0ZM45.9277 19.9039C45.9277 20.1667 45.9277 20.4264 45.9277 20.9519C45.9277 30.9039 38.3299 42.4294 24.4453 42.4294C20.2552 42.4294 16.3248 41.1186 12.9201 39.0256C13.4428 39.0256 14.2313 39.0256 14.7539 39.0256C18.1586 39.0256 21.5663 37.7147 24.1855 35.8814C20.7808 35.8814 18.1616 33.5256 17.1133 30.6442C17.636 30.6442 18.1616 30.9069 18.4245 30.9069C19.2099 30.9069 19.7356 30.9069 20.5211 30.6442C17.1164 29.8589 14.4972 26.9775 14.4972 23.3108C15.5455 23.8333 16.5938 24.0961 17.9018 24.3589C15.8053 22.5256 14.4972 20.4294 14.4972 17.8108C14.4972 16.5 14.76 15.1922 15.5455 14.1442C19.213 18.5961 24.7143 21.7403 31.001 22C31.001 21.4775 30.7381 20.9519 30.7381 20.1667C30.7381 15.9775 34.1428 12.5706 38.336 12.5706C40.4326 12.5706 42.5261 13.3558 43.8373 14.9264C45.671 14.6636 47.2419 13.8783 48.5531 13.0931C48.0304 14.9264 46.7193 16.2372 45.1484 17.2822C46.7193 17.0194 48.0305 16.7597 49.6014 15.9714C48.547 17.5481 47.2389 18.8558 45.9277 19.9039Z" fill="white"/>
</g>
<defs>
<filter id="filter0_d_387_5" x="0.987305" y="0" width="59.0127" height="59" filterUnits="userSpaceOnUse" color-interpolation-filters="sRGB">
<feFlood flood-opacity="0" result="BackgroundImageFix"/>
<feColorMatrix in="SourceAlpha" type="matrix" values="0 0 0 0 0 0 0 0 0 0 0 0 0 0 0 0 0 0 127 0" result="hardAlpha"/>
<feOffset dy="2"/>
<feGaussianBlur stdDeviation="1"/>
<feComposite in2="hardAlpha" operator="out"/>
<feColorMatrix type="matrix" values="0 0 0 0 0 0 0 0 0 0 0 0 0 0 0 0 0 0 0.25 0"/>
<feBlend mode="normal" in2="BackgroundImageFix" result="effect1_dropShadow_387_5"/>
<feBlend mode="normal" in="SourceGraphic" in2="effect1_dropShadow_387_5" result="shape"/>
</filter>
</defs>
</svg>
